<?xml version="1.0" encoding="utf-8"?>
<!-- Generator: Adobe Illustrator 16.0.0, SVG Export Plug-In . SVG Version: 6.00 Build 0)  -->
<!DOCTYPE svg PUBLIC "-//W3C//DTD SVG 1.1//EN" "http://www.w3.org/Graphics/SVG/1.1/DTD/svg11.dtd">
<svg version="1.1" id="Calque_1" xmlns="http://www.w3.org/2000/svg" xmlns:xlink="http://www.w3.org/1999/xlink" x="0px" y="0px"
	 width="612px" height="612px" viewBox="0 0 612 612" enable-background="new 0 0 612 612" xml:space="preserve">
<g id="ident-dirigeant-defaut" display="none">
	<path display="inline" fill-rule="evenodd" clip-rule="evenodd" d="M279.52,425.69c0.28-20.85,8-41.66-5.33-61.79
		c-8.91-13.47-2.32-32.49,10.66-42.14c12.69-9.43,30.1-9.38,42.72,0.12c12.92,9.73,19.38,28.8,10.47,42.18
		c-13.4,20.09-5.6,40.95-4.86,62.9c9.56-12.04,18.87-24.3,28.72-36.09c18.57-22.21,37.23-44.36,56.46-65.99
		c2.75-3.1,8.95-4.56,13.47-4.42c20.22,0.65,37.21,10.02,47.4,26.6c11.3,18.39,21.64,38.24,27.65,58.84
		c14.05,48.21,17.26,97.92,13.39,149.28c-142.41,0-284.55,0-427.85,0c-4.22-39.62-2.45-79.17,6.04-117.81
		c5.83-26.54,14.66-52.87,25.84-77.64c9.97-22.08,28.55-37.5,54.39-38.9c6.24-0.34,14.69,3.74,18.94,8.59
		C225.41,361.07,252.32,393.5,279.52,425.69z"/>
	<path display="inline" fill-rule="evenodd" clip-rule="evenodd" d="M431.96,176.77c-0.6,90.76-104.53,148.29-187.75,103.92
		c-46.98-25.04-71.78-74.07-63.08-124.68c8.52-49.55,52.13-90.37,104.46-97.79C363.15,47.22,432.45,103.36,431.96,176.77z"/>
</g>
<g id="tirage-exemp" display="none">
	<path display="inline" fill-rule="evenodd" clip-rule="evenodd" d="M199.12,200.46c1.09-3.52,3.61-5.42,6.96-6.81
		c18.94-7.87,37.68-16.21,56.75-23.74c12.29-4.85,17.57-13.74,18.07-26.29c0.09-2.14,0.17-4.28,0.25-6.43
		c0.25-6.66,4.68-10,11.18-8.39c15.89,3.92,31.77,7.85,47.67,11.77c18.64,4.6,37.28,9.17,55.92,13.77c5.24,1.3,7.55,4.08,7.33,9.48
		c-0.31,7.72-0.47,15.49-1.52,23.13c-1.3,9.54-6.62,16.98-14.66,22.13c-4.86,3.12-10.1,5.69-15.35,8.12
		c-17.61,8.14-35.33,16.06-52.95,24.18c-3.15,1.45-6.06,1.69-9.38,0.66c-34.43-10.66-68.88-21.25-103.35-31.79
		c-3.48-1.06-5.71-3.15-6.93-6.47C199.12,202.67,199.12,201.56,199.12,200.46z M231.29,200.81c1.28,0.42,1.98,0.67,2.7,0.89
		c25.6,7.88,51.21,15.75,76.8,23.68c1.58,0.49,2.85,0.32,4.33-0.36c16.58-7.58,33.21-15.06,49.78-22.66
		c4.26-1.95,8.51-3.98,12.54-6.36c4.91-2.9,7.78-7.44,8.51-13.11c0.5-3.97,0.57-7.99,0.92-11.97c0.13-1.51-0.35-2.12-1.89-2.49
		c-22.21-5.42-44.39-10.92-66.58-16.4c-7.02-1.73-14.05-3.44-21.25-5.21c-0.16,1.12-0.32,2.05-0.44,3
		c-1.69,13.65-7.74,24.62-20.09,31.32c-5.44,2.96-11.26,5.24-16.97,7.69C250.39,192.81,241.08,196.68,231.29,200.81z"/>
	<path display="inline" fill-rule="evenodd" clip-rule="evenodd" d="M199.12,232.84c0.13-0.15,0.3-0.29,0.37-0.46
		c2.11-5.03,5.79-6.81,10.99-5.22c13.53,4.15,27.05,8.32,40.57,12.48c20.12,6.19,40.24,12.4,60.38,18.51
		c1.04,0.32,2.46,0.11,3.48-0.35c27.8-12.57,55.62-25.11,83.31-37.91c6.19-2.86,11.53-0.94,13.44,5.06c0,1.11,0,2.21,0,3.32
		c-1.05,2.84-2.83,4.91-5.68,6.2c-29.32,13.27-58.63,26.58-87.91,39.92c-2.67,1.22-5.19,1.41-8.01,0.54
		c-34.1-10.54-68.22-21.06-102.36-31.47c-3.92-1.19-7.16-2.8-8.58-6.89C199.12,235.33,199.12,234.08,199.12,232.84z"/>
	<path display="inline" fill-rule="evenodd" clip-rule="evenodd" d="M411.67,261.07c-1.2,3.35-3.69,5.21-6.87,6.65
		c-28.87,13.04-57.7,26.17-86.52,39.32c-2.79,1.27-5.45,1.47-8.41,0.55c-34.35-10.62-68.7-21.21-103.09-31.7
		c-3.64-1.11-6.26-2.98-7.65-6.52c0-1.25,0-2.49,0-3.74c3.04-6.19,5.95-7.43,12.69-5.36c33.06,10.17,66.12,20.33,99.16,30.55
		c1.51,0.47,2.72,0.35,4.12-0.29c16.83-7.7,33.68-15.35,50.52-23.01c11.31-5.15,22.62-10.31,33.94-15.44
		c4.25-1.92,8.53-0.82,10.78,2.74c0.5,0.8,0.89,1.67,1.34,2.51C411.67,258.58,411.67,259.82,411.67,261.07z"/>
</g>
<path id="siege-social" fill-rule="evenodd" clip-rule="evenodd" d="M105.44,532.56c0-5.37,0-10.1,0-16.28c8.49,0,16.72,0,25.4,0
	c0.49-6.39,0.88-11.4,1.35-17.4c8.02,0,15.65,0,24.57,0c0-140.21,0-279.39,0-419.45c99.92,0,198.53,0,298.25,0
	c0,139.32,0,278.59,0,419.08c8.98,0,16.9,0,25.53,0c0.49,6.13,0.9,11.1,1.39,17.24c7.99,0,15.92,0,24.63,0c0,6.11,0,11.07,0,16.81
	C373.25,532.56,239.93,532.56,105.44,532.56z M254.25,420.08c0,26.29,0,51.91,0,77.62c14.65,0,28.68,0,42.82,0
	c0-26.3,0-51.57,0-77.62C282.71,420.08,268.88,420.08,254.25,420.08z M315.37,419.32c0,26.99,0,52.55,0,78.51
	c14.79,0,28.88,0,43.92,0c0-24.78,0.17-48.68-0.31-72.57c-0.04-2.03-4.38-5.55-6.87-5.67C340.37,418.98,328.57,419.32,315.37,419.32
	z M235.26,279.29c0-14.86,0-28.99,0-43.32c-14.68,0-28.53,0-42.51,0c0,14.86,0,28.96,0,43.32
	C207.46,279.29,221.32,279.29,235.26,279.29z M296.83,279.26c0-14.82,0-28.9,0-43.36c-14.64,0-28.47,0-42.47,0
	c0,14.83,0,28.97,0,43.36C268.9,279.26,282.72,279.26,296.83,279.26z M358.76,279.42c0-15.06,0-28.85,0-43.42
	c-14.65,0-28.74,0-43.29,0c0,14.68,0,28.77,0,43.42C330.06,279.42,343.84,279.42,358.76,279.42z M376.46,235.86
	c0,15.19,0,28.99,0,43.37c14.71,0,28.79,0,42.91,0c0-14.87,0-28.95,0-43.37C404.72,235.86,390.93,235.86,376.46,235.86z
	 M192.26,155.94c15.23,0,29.34,0,43.08,0c0-14.7,0-28.52,0-42.29c-14.82,0-28.88,0-43.08,0
	C192.26,128.16,192.26,141.69,192.26,155.94z M254.51,113.04c0,15.21,0,29.29,0,43.06c14.66,0,28.45,0,42.17,0
	c0-14.78,0-28.84,0-43.06C282.21,113.04,268.7,113.04,254.51,113.04z M315.09,156.03c15.1,0,29.24,0,43.55,0
	c0-14.63,0-28.46,0-42.56c-14.86,0-29,0-43.55,0C315.09,127.86,315.09,141.46,315.09,156.03z M419.23,156.23c0-14.88,0-28.96,0-42.8
	c-14.82,0-28.64,0-42.83,0c0,14.57,0,28.4,0,42.8C390.79,156.23,404.64,156.23,419.23,156.23z M192.27,217.75
	c15.06,0,29.14,0,43.2,0c0-14.7,0-28.54,0-42.55c-14.7,0-28.78,0-43.2,0C192.27,189.56,192.27,203.11,192.27,217.75z M254.24,217.71
	c14.64,0,28.68,0,42.74,0c0-14.71,0-28.51,0-42.49c-14.71,0-28.76,0-42.74,0C254.24,189.89,254.24,203.71,254.24,217.71z
	 M315.39,217.76c14.83,0,28.93,0,43.27,0c0-14.69,0-28.54,0-42.64c-14.87,0-29.04,0-43.27,0
	C315.39,189.74,315.39,203.6,315.39,217.76z M419.54,218.06c0-15,0-28.85,0-42.84c-14.79,0-28.88,0-43.01,0c0,14.67,0,28.5,0,42.84
	C391.04,218.06,404.88,218.06,419.54,218.06z M235.58,297.32c-15.14,0-28.94,0-43.15,0c0,14.59,0,28.4,0,42.83
	c14.62,0,28.7,0,43.15,0C235.58,325.62,235.58,311.79,235.58,297.32z M254.1,340.18c14.88,0,28.67,0,42.67,0
	c0-14.74,0-28.81,0-42.96c-14.66,0-28.44,0-42.67,0C254.1,311.72,254.1,325.55,254.1,340.18z M358.54,340.36
	c0-15.23,0-29.07,0-43.24c-14.67,0-28.53,0-43.06,0c0,14.65,0,28.73,0,43.24C330.17,340.36,344.06,340.36,358.54,340.36z
	 M419.89,297.45c-15.18,0-29.28,0-43.38,0c0,14.74,0,28.59,0,42.56c14.82,0,28.96,0,43.38,0
	C419.89,325.57,419.89,311.98,419.89,297.45z M235.5,359.31c-15.06,0-29.14,0-42.8,0c0,14.78,0,28.59,0,42.55
	c14.62,0,28.43,0,42.8,0C235.5,387.44,235.5,373.62,235.5,359.31z M296.75,402.16c0-15.21,0-29.27,0-43.13c-14.7,0-28.5,0-42.25,0
	c0,14.77,0,28.84,0,43.13C268.87,402.16,282.39,402.16,296.75,402.16z M315.34,401.69c14.79,0,28.91,0,43.36,0
	c0-14.64,0-28.48,0-42.65c-14.83,0-29.01,0-43.36,0C315.34,373.6,315.34,387.46,315.34,401.69z M376.68,358.93
	c0,14.69,0,28.79,0,42.93c14.71,0,28.56,0,42.68,0c0-14.71,0-28.79,0-42.93C404.66,358.93,390.81,358.93,376.68,358.93z"/>
</svg>
